Coordinates
version=1
nRows=6
nColumns=34
inDegrees=yes

Units are S.I. units (second, meters, Newtons, ...)
If the header above contains a line with 'inDegrees', this indicates whether rotational values are in degrees (yes) or radians (no).

endheader
time	pelvis_tilt	pelvis_list	pelvis_rotation	pelvis_tx	pelvis_ty	pelvis_tz	hip_flexion_r	hip_adduction_r	hip_rotation_r	knee_angle_r	ankle_angle_r	subtalar_angle_r	mtp_angle_r	hip_flexion_l	hip_adduction_l	hip_rotation_l	knee_angle_l	ankle_angle_l	subtalar_angle_l	mtp_angle_l	lumbar_extension	lumbar_bending	lumbar_rotation	arm_flex_r	arm_add_r	arm_rot_r	elbow_flex_r	pro_sup_r	arm_flex_l	arm_add_l	arm_rot_l	elbow_flex_l	pro_sup_l
      5.45000000	      8.72576862	    -12.84056567	    -30.43210198	      3.30902294	      1.04602537	      0.91368886	     -0.72081619	      4.64121775	    -11.67444061	     26.13938232	     17.36212412	     11.51441825	      0.00000000	      8.19485008	      4.51377096	      3.03570127	     28.55558279	      6.22920749	    -10.30204270	      0.00000000	     -9.29635308	     -0.70888237	     -1.07217473	     11.96393587	     -8.86065656	     26.00315695	     87.58542206	    119.74817918	      4.75610709	    -14.22489097	     24.84038758	     96.99676314	    119.74817918
      5.46666670	      8.03183544	    -13.22549335	    -29.71142923	      3.31001481	      1.04509191	      0.91207007	     -0.36006824	      5.68106004	    -11.44172697	     25.88385328	     17.15363669	     10.06246935	      0.00000000	      9.04232265	      3.90770666	      3.63136603	     29.28119958	      6.29914267	    -10.42938679	      0.00000000	     -8.89427930	      0.27217618	     -1.35518015	     11.52511546	     -9.22883712	     25.71318692	     88.13091773	    119.74817918	      5.72805992	    -14.01005668	     25.29837366	     96.42948861	    119.74817918
      5.48333330	      7.86450461	    -13.16386343	    -29.44450224	      3.31165003	      1.04507163	      0.91154288	     -0.39175402	      5.79419852	    -11.46707847	     25.57564716	     17.24826245	      9.73118010	      0.00000000	      9.10031600	      3.83827646	      3.21286389	     29.04900248	      5.73273167	    -10.27897887	      0.00000000	     -8.61939916	      0.43095413	     -1.64766970	     11.09020709	     -9.41008246	     25.70152602	     88.34163095	    119.74817918	      5.89674548	    -13.75919449	     25.00290672	     96.41433566	    119.74817918
      5.50000000	      7.55485923	    -13.09219548	    -29.18981940	      3.31453075	      1.04498222	      0.91140161	     -0.38124270	      5.94112322	    -11.44979820	     25.23194557	     17.15273803	      9.40729670	      0.00000000	      8.92429855	      3.75492923	      3.15682108	     28.36134270	      4.92630088	     -9.71653436	      0.00000000	     -8.03348296	      0.71534070	     -1.82861886	     10.27765598	     -9.80047945	     25.74465355	     88.62064467	    119.74817918	      5.73300352	    -13.40082570	     24.73727001	     96.49307959	    119.74817918
      5.51666670	      7.58467009	    -13.02771114	    -28.58257672	      3.31754430	      1.04564687	      0.91111169	     -0.75961799	      6.10397465	    -11.04828248	     24.69846119	     16.89955754	      7.93257497	      0.00000000	      8.55696805	      3.62558341	      2.56432760	     28.17613152	      7.01077278	     -8.53169030	      0.00000000	     -7.81046383	      0.71195291	     -2.09188583	      9.04489307	    -10.11037624	     25.33935887	     89.15333361	    119.74817918	      5.63088676	    -12.94062301	     24.28596894	     96.60441046	    119.74817918
      5.53333330	      7.46399732	    -13.04386470	    -28.61767105	      3.32013307	      1.04607949	      0.91120257	     -1.04853680	      6.22664751	    -10.67806807	     24.19528154	     16.79762160	      7.57292488	      0.00000000	      8.10900285	      3.39149055	      2.00452275	     27.76899904	      8.82385605	     -6.15446685	      0.00000000	     -7.49091880	      0.93752504	     -1.90305558	      8.06205793	    -10.67346959	     25.44260778	     89.70563580	    119.74817918	      5.38210699	    -12.56935094	     23.80667643	     96.89677636	    119.74817918
